<?xml version="1.0" standalone="no"?>
<!DOCTYPE svg PUBLIC "-//W3C//DTD SVG 20010904//EN"
 "http://www.w3.org/TR/2001/REC-SVG-20010904/DTD/svg10.dtd">
<svg version="1.0" xmlns="http://www.w3.org/2000/svg"
 width="200.000000pt" height="47.000000pt" viewBox="0 0 200.000000 47.000000"
 preserveAspectRatio="xMidYMid meet">

<g transform="translate(0.000000,47.000000) scale(0.100000,-0.100000)"
fill="#000000" stroke="none">
<path d="M50 293 c0 -146 11 -182 69 -220 31 -21 45 -23 167 -23 l134 0 0 118
0 119 -45 32 c-25 18 -45 34 -45 37 0 2 23 4 50 4 49 0 50 -1 50 -30 0 -16 2
-30 5 -30 7 0 155 111 155 116 0 2 -121 4 -270 4 l-270 0 0 -127z m238 15 l72
-51 0 -74 0 -73 -99 0 c-99 0 -99 0 -125 31 -24 28 -26 38 -26 125 l0 94 53 0
c47 0 59 -5 125 -52z"/>
<path d="M661 238 c1 -44 4 -63 8 -49 9 34 29 37 37 7 3 -14 10 -26 16 -26 5
0 6 6 1 13 -4 6 -8 37 -8 67 0 53 -1 55 -27 58 l-28 3 1 -73z m49 27 c0 -18
-5 -25 -20 -25 -20 0 -28 28 -13 43 15 16 33 6 33 -18z"/>
<path d="M813 240 c0 -41 2 -58 4 -37 2 20 2 54 0 75 -2 20 -4 3 -4 -38z"/>
<path d="M1223 240 c0 -60 1 -66 6 -31 8 62 29 65 34 4 l3 -48 2 53 c2 46 -1
55 -17 59 -11 3 -22 12 -24 22 -3 9 -5 -18 -4 -59z"/>
<path d="M923 285 c-7 -7 -8 -17 -2 -26 5 -8 9 -31 9 -51 0 -21 3 -38 8 -38 7
0 7 118 0 125 -1 2 -8 -3 -15 -10z"/>
<path d="M752 268 c-13 -13 -16 -56 -6 -82 7 -17 29 -21 38 -7 3 5 -2 8 -11 7
-26 -2 -29 34 -3 41 14 4 20 12 18 26 -4 25 -19 32 -36 15z m28 -18 c0 -5 -7
-10 -15 -10 -8 0 -15 5 -15 10 0 6 7 10 15 10 8 0 15 -4 15 -10z"/>
<path d="M857 273 c-12 -11 -7 -23 7 -17 8 3 17 1 20 -4 3 -5 -3 -12 -14 -15
-15 -4 -20 -14 -20 -36 0 -26 4 -31 25 -31 22 0 25 4 25 36 0 52 -23 88 -43
67z m25 -75 c-15 -15 -26 -4 -18 18 5 13 9 15 18 6 9 -9 9 -15 0 -24z"/>
<path d="M1011 266 c-7 -8 -11 -32 -9 -53 2 -30 7 -38 22 -38 11 0 22 7 24 15
4 12 3 13 -10 3 -20 -17 -28 -7 -28 34 0 41 24 45 38 6 6 -16 11 -23 11 -16 1
19 -18 63 -28 63 -4 0 -14 -6 -20 -14z"/>
<path d="M1093 273 c-9 -3 -12 -23 -11 -56 l2 -52 3 48 c5 61 26 58 34 -4 l6
-44 1 42 c2 43 -5 74 -17 72 -3 0 -12 -3 -18 -6z"/>
<path d="M1155 259 c-6 -16 -2 -26 15 -39 13 -10 20 -22 16 -29 -6 -9 -12 -9
-24 1 -13 11 -14 11 -10 -2 2 -8 13 -15 24 -15 27 0 31 41 5 55 -27 14 -27 34
0 27 13 -3 19 -1 16 6 -7 22 -35 19 -42 -4z"/>
<path d="M1343 273 c-9 -3 -13 -27 -12 -76 1 -40 4 -62 6 -51 2 12 13 24 24
27 17 5 20 12 17 53 -3 47 -11 57 -35 47z m25 -50 c-2 -21 -7 -38 -13 -38 -5
0 -11 17 -13 38 -3 29 0 37 13 37 13 0 16 -8 13 -37z"/>
<path d="M1453 273 c-9 -3 -12 -23 -11 -56 l2 -52 3 48 c3 32 9 47 18 47 9 0
15 -15 18 -47 l3 -48 2 48 c1 33 6 47 16 47 10 0 16 -15 19 -47 4 -45 4 -45 3
7 -1 53 -2 55 -31 56 -16 0 -36 -1 -42 -3z"/>
<path d="M1567 274 c-12 -13 -7 -24 8 -18 8 4 15 1 15 -5 0 -6 -4 -11 -10 -11
-14 0 -31 -37 -24 -54 3 -9 16 -16 28 -16 20 0 21 4 16 52 -5 48 -17 68 -33
52z m20 -81 c-3 -3 -11 -2 -17 2 -8 5 -7 11 2 22 12 15 13 14 16 -1 2 -10 1
-20 -1 -23z"/>
<path d="M1643 273 c-9 -3 -12 -23 -11 -56 l2 -52 3 48 c5 61 26 58 34 -4 l6
-44 1 42 c2 43 -5 74 -17 72 -3 0 -12 -3 -18 -6z"/>
<path d="M1707 274 c-13 -14 -7 -22 13 -17 11 3 20 1 20 -5 0 -5 -9 -12 -21
-15 -30 -8 -23 -61 9 -65 22 -3 23 -1 20 50 -2 38 -7 54 -18 56 -9 1 -19 0
-23 -4z m33 -70 c0 -8 -7 -14 -15 -14 -15 0 -21 21 -9 33 10 9 24 -2 24 -19z"/>
<path d="M1776 264 c-3 -9 -6 -31 -6 -51 0 -27 5 -36 20 -40 21 -6 22 -30 1
-25 -6 1 -11 -3 -11 -9 0 -6 8 -9 18 -7 14 3 18 16 20 76 3 66 1 72 -16 72
-11 0 -23 -7 -26 -16z m34 -39 c0 -24 -5 -35 -15 -35 -10 0 -15 11 -15 35 0
24 5 35 15 35 10 0 15 -11 15 -35z"/>
<path d="M1857 273 c-13 -13 -7 -21 13 -16 11 3 20 0 20 -6 0 -6 -11 -11 -25
-11 -28 0 -30 -6 -15 -44 10 -27 34 -34 45 -15 4 6 0 9 -11 7 -13 -2 -20 4
-22 20 -3 17 2 22 17 22 23 0 28 19 9 38 -14 14 -22 15 -31 5z"/>
<path d="M1927 273 c-4 -3 -6 -29 -5 -57 1 -47 2 -48 5 -11 3 22 9 44 14 50 5
5 9 13 9 17 0 10 -14 11 -23 1z"/>
<path d="M973 220 c0 -30 2 -43 4 -27 2 15 2 39 0 55 -2 15 -4 2 -4 -28z"/>
<path d="M1303 220 c0 -30 2 -43 4 -27 2 15 2 39 0 55 -2 15 -4 2 -4 -28z"/>
</g>
</svg>
